<?xml version="1.0" encoding="UTF-8" standalone="no"?>
<svg
   xmlns:dc="http://purl.org/dc/elements/1.1/"
   xmlns:cc="http://creativecommons.org/ns#"
   xmlns:rdf="http://www.w3.org/1999/02/22-rdf-syntax-ns#"
   xmlns:svg="http://www.w3.org/2000/svg"
   xmlns="http://www.w3.org/2000/svg"
   xmlns:sodipodi="http://sodipodi.sourceforge.net/DTD/sodipodi-0.dtd"
   xmlns:inkscape="http://www.inkscape.org/namespaces/inkscape"
   inkscape:version="1.0 (4035a4fb49, 2020-05-01)"
   sodipodi:docname="css.svg"
   id="svg837"
   version="1.1"
   viewBox="0 0 19 22">
  <metadata
     id="metadata843">
    <rdf:RDF>
      <cc:Work
         rdf:about="">
        <dc:format>image/svg+xml</dc:format>
        <dc:type
           rdf:resource="http://purl.org/dc/dcmitype/StillImage" />
        <dc:title />
      </cc:Work>
    </rdf:RDF>
  </metadata>
  <defs
     id="defs841" />
  <sodipodi:namedview
     inkscape:current-layer="svg837"
     inkscape:window-maximized="1"
     inkscape:window-y="-8"
     inkscape:window-x="-8"
     inkscape:cy="5.5373986"
     inkscape:cx="10.187569"
     inkscape:zoom="16"
     inkscape:guide-bbox="true"
     showguides="true"
     inkscape:bbox-paths="true"
     inkscape:object-paths="true"
     inkscape:snap-bbox-edge-midpoints="true"
     inkscape:bbox-nodes="true"
     inkscape:snap-bbox-midpoints="true"
     inkscape:snap-text-baseline="true"
     inkscape:snap-object-midpoints="true"
     inkscape:snap-bbox="true"
     showgrid="false"
     id="namedview839"
     inkscape:window-height="1017"
     inkscape:window-width="1920"
     inkscape:pageshadow="2"
     inkscape:pageopacity="0"
     guidetolerance="10"
     gridtolerance="10"
     objecttolerance="10"
     borderopacity="1"
     bordercolor="#666666"
     pagecolor="#ffffff"
     inkscape:document-rotation="0" />
  <path
     sodipodi:nodetypes="cssssssssc"
     id="rect849-7"
     style="fill:#f31165;fill-opacity:1;stroke-width:1.31901;paint-order:stroke fill markers"
     d="M 17.85677,7.3301945 C 18.56639,8.0856255 19,9.1036605 19,10.226695 v 7.546609 C 19,20.114894 17.11489,22 14.7733,22 H 4.2267003 C 1.8851103,22 3e-7,20.114894 3e-7,17.773304 V 4.2266965 C 3e-7,1.8851065 1.8851103,3e-7 4.2267003,3e-7 h 4.5466 c 1.21855,0 2.3134887,0.51051 3.0834687,1.3301942" />
  <path
     style="fill:#f31165;fill-opacity:1"
     id="path833"
     d="m -17,2.625e-7 h 9.0000003 V 1.0000002 l 7,7.0000001 h 1 V 18 c 0,2 -2,4 -4,4 H -15 c -2,0 -4,-2 -4,-4 V 4.0000002 C -19,2.0000003 -17,2.625e-7 -15,2.625e-7"
     fill="rgb(57, 97, 237)" />
  <path
     style="fill:#f879a8;fill-opacity:1"
     id="path835"
     d="m -7.9999997,2.625e-7 8,8.0000000375 h -6 c -1,0 -2,-1.0000001 -2,-2.0000001 z"
     fill="rgb(106,136,242)" />
  <text
     xml:space="preserve"
     style="font-weight:500;font-size:6.98334px;line-height:1.25;font-family:Montserrat;-inkscape-font-specification:'Montserrat Medium';stroke-width:0.184766"
     x="21.237053"
     y="18.899199"
     id="text865-6"><tspan
       sodipodi:role="line"
       id="tspan863-1"
       x="21.237053"
       y="18.899199"
       style="font-style:normal;font-variant:normal;font-weight:normal;font-stretch:normal;font-family:'Arial Rounded MT Bold';-inkscape-font-specification:'Arial Rounded MT Bold, ';fill:#ffffff;stroke-width:0.184766">CSS</tspan></text>
  <text
     id="text865-1-4"
     y="11.621062"
     x="24.940134"
     style="font-weight:500;font-size:6.98334px;line-height:1.25;font-family:Montserrat;-inkscape-font-specification:'Montserrat Medium';stroke-width:0.184766"
     xml:space="preserve"><tspan
       style="font-style:normal;font-variant:normal;font-weight:normal;font-stretch:normal;font-family:'Arial Rounded MT Bold';-inkscape-font-specification:'Arial Rounded MT Bold, ';fill:#ffffff;stroke-width:0.184766"
       y="11.621062"
       x="24.940134"
       id="tspan863-2-9"
       sodipodi:role="line">{ }</tspan></text>
  <g
     style="font-weight:500;font-size:10.56px;line-height:1.25;font-family:Montserrat;-inkscape-font-specification:'Montserrat Medium';stroke-width:0.184766"
     id="text865-1-4-7"
     aria-label="{ }">
    <path
       id="path966"
       style="font-style:normal;font-variant:normal;font-weight:normal;font-stretch:normal;font-size:10.56px;font-family:'Arial Rounded MT Bold';-inkscape-font-specification:'Arial Rounded MT Bold, ';fill:#ffffff;stroke-width:0.184766"
       d="m 5.9318752,13.002578 q 0.3660938,0.226875 0.5723438,0.510469 0.20625,0.278437 0.28875,0.716719 0.0825,0.433125 0.0825,1.11375 0,0.510468 0.020625,0.752812 0.025781,0.242344 0.092812,0.366094 0.072188,0.128906 0.1701563,0.165 0.097969,0.04125 0.3351563,0.07734 0.1959375,0.02578 0.3248437,0.190781 0.1289063,0.165 0.1289063,0.433125 0,0.623906 -0.7579688,0.623906 -0.4692188,0 -0.8404688,-0.195937 Q 5.9834377,17.560703 5.782344,17.199766 5.5812502,16.843984 5.576094,16.379922 5.5606252,15.596172 5.5451565,15.121797 5.5296877,14.647422 5.4987502,14.508203 5.4214065,14.162734 5.266719,13.987422 5.1171877,13.812109 4.8696877,13.662578 4.6273439,13.507891 4.5242189,13.389297 q -0.103125,-0.12375 -0.103125,-0.386719 0,-0.381562 0.2990625,-0.572344 0.3712501,-0.232031 0.5259376,-0.391875 0.1598437,-0.165 0.2217187,-0.417656 0.067031,-0.257813 0.077344,-0.556875 0.010313,-0.304219 0.030938,-1.4540626 0.015469,-0.7115625 0.4485937,-1.134375 0.4382813,-0.4279688 1.1653126,-0.4279688 0.7579688,0 0.7579688,0.6135938 0,0.2784375 -0.1289063,0.4382812 -0.12375,0.1598438 -0.3248437,0.1856251 -0.2990626,0.04125 -0.4176563,0.12375 -0.1185938,0.0825 -0.1546875,0.3196875 -0.036094,0.2371875 -0.046406,0.9178128 -0.010312,0.665156 -0.0825,1.093125 -0.067031,0.422812 -0.2732812,0.721875 -0.2010938,0.299062 -0.5878126,0.541406 z" />
    <path
       id="path968"
       style="font-style:normal;font-variant:normal;font-weight:normal;font-stretch:normal;font-size:10.56px;font-family:'Arial Rounded MT Bold';-inkscape-font-specification:'Arial Rounded MT Bold, ';fill:#ffffff;stroke-width:0.184766"
       d="m 13.068125,13.002578 q -0.278437,-0.175312 -0.45375,-0.366094 -0.175312,-0.190781 -0.28875,-0.464062 -0.113437,-0.273281 -0.159844,-0.644532 -0.04641,-0.376406 -0.04641,-0.881718 0,-0.489844 -0.02062,-0.7476566 Q 12.078125,9.6355467 12.01625,9.5169529 11.954375,9.3983592 11.840938,9.3571092 11.732656,9.3107029 11.505781,9.2849217 11.315,9.2591404 11.180938,9.0992966 11.052031,8.9394529 11.052031,8.6610154 q 0,-0.6135938 0.747657,-0.6135938 0.479531,0 0.840468,0.1959375 0.366094,0.1907813 0.572344,0.5517188 0.211407,0.3557813 0.216563,0.8146875 0.03094,1.7118746 0.07219,1.8820316 0.0825,0.340312 0.242344,0.520781 0.159844,0.175313 0.386719,0.314531 0.226875,0.134063 0.335156,0.268125 0.113438,0.134063 0.113438,0.407344 0,0.386719 -0.293907,0.567188 -0.360937,0.221718 -0.525937,0.391875 -0.159844,0.165 -0.226875,0.417656 -0.06187,0.2475 -0.07734,0.747656 -0.01031,0.500156 -0.02578,1.252969 -0.01547,0.711562 -0.458906,1.139531 -0.438282,0.433125 -1.170469,0.433125 -0.360938,0 -0.556875,-0.159844 -0.190782,-0.159843 -0.190782,-0.464062 0,-0.170156 0.06188,-0.314531 0.06188,-0.139219 0.159844,-0.216563 0.103125,-0.07734 0.232031,-0.09281 0.232032,-0.03094 0.345469,-0.07734 0.113438,-0.04641 0.170156,-0.175313 0.06187,-0.128906 0.07734,-0.381562 0.02062,-0.2475 0.02062,-0.727031 0.01031,-0.711563 0.0825,-1.11375 0.07219,-0.402188 0.273281,-0.690938 0.201094,-0.28875 0.592969,-0.53625 z" />
  </g>
  <g
     style="font-weight:500;font-size:10.56px;line-height:1.25;font-family:Montserrat;-inkscape-font-specification:'Montserrat Medium';stroke-width:0.184766"
     id="text964"
     aria-label="{ }">
    <path
       id="path971"
       style="font-style:normal;font-variant:normal;font-weight:normal;font-stretch:normal;font-size:10.56px;font-family:'Arial Rounded MT Bold';-inkscape-font-specification:'Arial Rounded MT Bold, ';fill:#ffffff;stroke-width:0.184766"
       d="m -13.068124,13.002578 q 0.366093,0.226875 0.572343,0.510469 0.206251,0.278437 0.288751,0.716719 0.0825,0.433125 0.0825,1.11375 0,0.510468 0.02063,0.752812 0.02578,0.242344 0.09281,0.366094 0.07219,0.128906 0.170156,0.165 0.09797,0.04125 0.335157,0.07734 0.195937,0.02578 0.324843,0.190781 0.128907,0.165 0.128907,0.433125 0,0.623906 -0.757969,0.623906 -0.469219,0 -0.840469,-0.195937 -0.366094,-0.195938 -0.567188,-0.556875 -0.201093,-0.355782 -0.20625,-0.819844 -0.01547,-0.78375 -0.03094,-1.258125 -0.01547,-0.474375 -0.04641,-0.613594 -0.07734,-0.345469 -0.232032,-0.520781 -0.149531,-0.175313 -0.397031,-0.324844 -0.242344,-0.154687 -0.345469,-0.273281 -0.103125,-0.12375 -0.103125,-0.386719 0,-0.381562 0.299063,-0.572344 0.37125,-0.232031 0.525937,-0.391875 0.159844,-0.165 0.221719,-0.417656 0.06703,-0.257813 0.07734,-0.556875 0.01031,-0.304219 0.03094,-1.4540626 0.01547,-0.7115625 0.448594,-1.134375 0.438281,-0.4279688 1.165313,-0.4279688 0.757969,0 0.757969,0.6135938 0,0.2784375 -0.128907,0.4382812 -0.12375,0.1598438 -0.324843,0.1856251 -0.299063,0.04125 -0.417657,0.12375 -0.118593,0.0825 -0.154687,0.3196875 -0.03609,0.2371875 -0.04641,0.9178128 -0.01031,0.665156 -0.0825,1.093125 -0.06703,0.422812 -0.273282,0.721875 -0.201094,0.299062 -0.587812,0.541406 z" />
    <path
       id="path973"
       style="font-style:normal;font-variant:normal;font-weight:normal;font-stretch:normal;font-size:10.56px;font-family:'Arial Rounded MT Bold';-inkscape-font-specification:'Arial Rounded MT Bold, ';fill:#ffffff;stroke-width:0.184766"
       d="m -5.9318743,13.002578 q -0.2784375,-0.175312 -0.45375,-0.366094 -0.1753125,-0.190781 -0.28875,-0.464062 -0.1134375,-0.273281 -0.1598437,-0.644532 -0.046406,-0.376406 -0.046406,-0.881718 0,-0.489844 -0.020625,-0.7476566 -0.020625,-0.2629687 -0.0825,-0.3815625 -0.061875,-0.1185937 -0.1753125,-0.1598437 -0.1082813,-0.046406 -0.3351563,-0.072188 -0.1907812,-0.025781 -0.3248437,-0.1856251 -0.1289063,-0.1598437 -0.1289063,-0.4382812 0,-0.6135938 0.7476563,-0.6135938 0.4795313,0 0.8404688,0.1959375 0.3660937,0.1907813 0.5723437,0.5517188 0.2114063,0.3557813 0.2165626,0.8146875 0.030938,1.7118746 0.072188,1.8820316 0.0825,0.340312 0.2423437,0.520781 0.1598438,0.175313 0.3867188,0.314531 0.226875,0.134063 0.3351562,0.268125 0.1134375,0.134063 0.1134375,0.407344 0,0.386719 -0.2939062,0.567188 -0.3609375,0.221718 -0.5259375,0.391875 -0.1598438,0.165 -0.226875,0.417656 -0.061875,0.2475 -0.077344,0.747656 -0.010313,0.500156 -0.025781,1.252969 -0.015469,0.711562 -0.4589063,1.139531 -0.4382813,0.433125 -1.1704688,0.433125 -0.3609375,0 -0.556875,-0.159844 -0.1907813,-0.159843 -0.1907813,-0.464062 0,-0.170156 0.061875,-0.314531 0.061875,-0.139219 0.1598438,-0.216563 0.103125,-0.07734 0.2320312,-0.09281 0.2320313,-0.03094 0.3454688,-0.07734 0.1134375,-0.04641 0.1701562,-0.175313 0.061875,-0.128906 0.077344,-0.381562 0.020625,-0.2475 0.020625,-0.727031 0.010313,-0.711563 0.0825,-1.11375 0.072187,-0.402188 0.2732813,-0.690938 0.2010937,-0.28875 0.5929687,-0.53625 z" />
  </g>
</svg>
