<?xml version="1.0" encoding="UTF-8" standalone="no"?>
<svg
   xmlns:dc="http://purl.org/dc/elements/1.1/"
   xmlns:cc="http://creativecommons.org/ns#"
   xmlns:rdf="http://www.w3.org/1999/02/22-rdf-syntax-ns#"
   xmlns:svg="http://www.w3.org/2000/svg"
   xmlns="http://www.w3.org/2000/svg"
   id="svg849"
   version="1.1"
   viewBox="0 0 19 22">
  <metadata
     id="metadata855">
    <rdf:RDF>
      <cc:Work
         rdf:about="">
        <dc:format>image/svg+xml</dc:format>
        <dc:type
           rdf:resource="http://purl.org/dc/dcmitype/StillImage" />
        <dc:title></dc:title>
      </cc:Work>
    </rdf:RDF>
  </metadata>
  <defs
     id="defs853" />
  <path
     d="M 17.85677,7.3301946 C 18.56639,8.0856256 19,9.1036606 19,10.226696 v 7.546608 C 19,20.114894 17.11489,22 14.7733,22 H 4.2267003 C 1.8851103,22 2.5e-7,20.114894 2.5e-7,17.773304 V 4.2266966 C 2.5e-7,1.8851066 1.8851103,4.15e-7 4.2267003,4.15e-7 h 4.5466 c 1.2185505,0 2.3134897,0.510509975 3.0834697,1.330194185"
     style="fill:#3961ed;fill-opacity:1;stroke-width:1.31901;paint-order:stroke fill markers"
     id="rect849-7" />
  <path
     id="path845"
     d="m -17,2.075e-7 h 9.0000002 V 1.0000002 l 7.00000005,7 h 1 V 18 c 0,2 -2.00000005,4 -4.00000005,4 H -15 c -2,0 -4,-2 -4,-4 V 4.0000002 c 0,-2 2,-3.9999999925 4,-3.9999999925"
     fill="#3961ed" />
  <path
     id="path847"
     d="M -7.9999998,2.075e-7 2.5e-7,8.0000002 H -5.9999998 c -1,0 -2,-1 -2,-2 z"
     fill="#6a88f2" />
</svg>
