<?xml version="1.0" encoding="UTF-8" standalone="no"?>
<svg
   xmlns:dc="http://purl.org/dc/elements/1.1/"
   xmlns:cc="http://creativecommons.org/ns#"
   xmlns:rdf="http://www.w3.org/1999/02/22-rdf-syntax-ns#"
   xmlns:svg="http://www.w3.org/2000/svg"
   xmlns="http://www.w3.org/2000/svg"
   xmlns:sodipodi="http://sodipodi.sourceforge.net/DTD/sodipodi-0.dtd"
   xmlns:inkscape="http://www.inkscape.org/namespaces/inkscape"
   viewBox="0 0 19 22"
   version="1.1"
   id="svg837"
   sodipodi:docname="pdf.svg"
   inkscape:version="1.0 (4035a4fb49, 2020-05-01)">
  <metadata
     id="metadata843">
    <rdf:RDF>
      <cc:Work
         rdf:about="">
        <dc:format>image/svg+xml</dc:format>
        <dc:type
           rdf:resource="http://purl.org/dc/dcmitype/StillImage" />
      </cc:Work>
    </rdf:RDF>
  </metadata>
  <defs
     id="defs841" />
  <sodipodi:namedview
     inkscape:snap-nodes="false"
     inkscape:snap-midpoints="true"
     inkscape:snap-smooth-nodes="true"
     inkscape:snap-intersection-paths="true"
     inkscape:document-rotation="0"
     pagecolor="#ffffff"
     bordercolor="#666666"
     borderopacity="1"
     objecttolerance="10"
     gridtolerance="10"
     guidetolerance="10"
     inkscape:pageopacity="0"
     inkscape:pageshadow="2"
     inkscape:window-width="1920"
     inkscape:window-height="1017"
     id="namedview839"
     showgrid="false"
     inkscape:snap-bbox="true"
     inkscape:snap-object-midpoints="true"
     inkscape:snap-text-baseline="true"
     inkscape:snap-bbox-midpoints="true"
     inkscape:bbox-nodes="true"
     inkscape:snap-bbox-edge-midpoints="true"
     inkscape:object-paths="false"
     inkscape:bbox-paths="true"
     showguides="true"
     inkscape:guide-bbox="true"
     inkscape:zoom="8.0000004"
     inkscape:cx="-21.559203"
     inkscape:cy="6.1186133"
     inkscape:window-x="-8"
     inkscape:window-y="-8"
     inkscape:window-maximized="1"
     inkscape:current-layer="svg837" />
  <path
     sodipodi:nodetypes="cssssssssc"
     id="rect849-7"
     style="fill:#e94848;fill-opacity:1;stroke-width:1.31901;paint-order:stroke fill markers"
     d="m 17.856769,7.3301942 c 0.70962,0.755431 1.14323,1.773466 1.14323,2.8965008 v 7.546608 c 0,2.34159 -1.88511,4.226696 -4.2267,4.226696 H 4.2266996 C 1.88511,21.999999 0,20.114893 0,17.773303 V 4.2266962 C 0,1.8851062 1.88511,0 4.2266996,0 h 4.5466 c 1.2185497,0 2.3134894,0.51051 3.0834694,1.3301942" />
  <path
     style="fill:none;stroke:#ffffff;stroke-width:0.789853;stroke-linecap:butt;stroke-linejoin:miter;stroke-miterlimit:4;stroke-dasharray:none;stroke-opacity:1"
     d="M 9.5474758,8.9783811 C 9.3476616,7.8099734 7.8904885,7.9245585 7.9406454,9.0514351 c 0.092771,2.0852079 2.9525366,6.4800839 5.6093276,6.0913799 0.550018,-0.08048 0.944916,-0.976359 0.04384,-1.343901 -1.140122,-0.465046 -8.2435676,1.645492 -8.6769192,3.038389 -0.3020656,0.9709 1.0450879,1.404918 1.533796,0.569696 1.3998373,-2.658146 3.2988446,-7.246783 3.0967873,-8.4286182 z"
     id="path949"
     sodipodi:nodetypes="ssssscs" />
  <path
     fill="rgb(57, 97, 237)"
     d="m -17,0 h 9 v 1 l 7,7 h 1 v 10 c 0,2 -2,4 -4,4 h -11 c -2,0 -4,-2 -4,-4 V 4 c 0,-2 2,-4 4,-4"
     id="path833"
     style="fill:#e94848;fill-opacity:1" />
  <path
     fill="rgb(106,136,242)"
     d="M -8,0 0,8 H -6 C -7,8 -8,7 -8,6 Z"
     id="path835"
     style="fill:#f29191;fill-opacity:1" />
  <path
     style="fill:none;stroke:#ffffff;stroke-width:0.789853;stroke-linecap:butt;stroke-linejoin:miter;stroke-miterlimit:4;stroke-dasharray:none;stroke-opacity:1"
     d="m -9.452524,8.9783811 c -0.199814,-1.1684077 -1.656987,-1.0538226 -1.606831,0.073054 0.09277,2.0852079 2.952537,6.4800839 5.609328,6.0913799 0.550018,-0.08048 0.944916,-0.976359 0.04384,-1.343901 -1.140122,-0.465046 -8.243568,1.645492 -8.676919,3.038389 -0.302066,0.9709 1.045088,1.404918 1.533796,0.569696 1.399837,-2.658146 3.298844,-7.246783 3.096787,-8.4286182 z"
     id="path949-0"
     sodipodi:nodetypes="ssssscs" />
</svg>
