<?xml version="1.0" encoding="UTF-8" standalone="no"?>
<svg
   xmlns:dc="http://purl.org/dc/elements/1.1/"
   xmlns:cc="http://creativecommons.org/ns#"
   xmlns:rdf="http://www.w3.org/1999/02/22-rdf-syntax-ns#"
   xmlns:svg="http://www.w3.org/2000/svg"
   xmlns="http://www.w3.org/2000/svg"
   xmlns:sodipodi="http://sodipodi.sourceforge.net/DTD/sodipodi-0.dtd"
   xmlns:inkscape="http://www.inkscape.org/namespaces/inkscape"
   viewBox="0 0 19 22"
   version="1.1"
   id="svg837"
   sodipodi:docname="svg.svg"
   inkscape:version="1.0 (4035a4fb49, 2020-05-01)">
  <metadata
     id="metadata843">
    <rdf:RDF>
      <cc:Work
         rdf:about="">
        <dc:format>image/svg+xml</dc:format>
        <dc:type
           rdf:resource="http://purl.org/dc/dcmitype/StillImage" />
        <dc:title />
      </cc:Work>
    </rdf:RDF>
  </metadata>
  <defs
     id="defs841" />
  <sodipodi:namedview
     inkscape:document-rotation="0"
     pagecolor="#ffffff"
     bordercolor="#666666"
     borderopacity="1"
     objecttolerance="10"
     gridtolerance="10"
     guidetolerance="10"
     inkscape:pageopacity="0"
     inkscape:pageshadow="2"
     inkscape:window-width="1920"
     inkscape:window-height="1017"
     id="namedview839"
     showgrid="false"
     inkscape:snap-bbox="true"
     inkscape:snap-object-midpoints="true"
     inkscape:snap-text-baseline="true"
     inkscape:snap-bbox-midpoints="true"
     inkscape:bbox-nodes="true"
     inkscape:snap-bbox-edge-midpoints="true"
     inkscape:object-paths="true"
     inkscape:bbox-paths="true"
     showguides="true"
     inkscape:guide-bbox="true"
     inkscape:zoom="16"
     inkscape:cx="-1.7762593"
     inkscape:cy="15.157534"
     inkscape:window-x="-8"
     inkscape:window-y="-8"
     inkscape:window-maximized="1"
     inkscape:current-layer="svg837" />
  <path
     d="M 17.85677,7.3301945 C 18.56639,8.0856255 19,9.1036605 19,10.226695 v 7.546609 C 19,20.114894 17.11489,22 14.7733,22 H 4.2267003 C 1.8851103,22 3e-7,20.114894 3e-7,17.773304 V 4.2266965 C 3e-7,1.8851065 1.8851103,3e-7 4.2267003,3e-7 h 4.5466 c 1.21855,0 2.3134887,0.51051 3.0834687,1.3301942"
     style="fill:#fd7541;fill-opacity:1;stroke-width:1.31901;paint-order:stroke fill markers"
     id="rect849-7"
     sodipodi:nodetypes="cssssssssc" />
  <path
     fill="rgb(57, 97, 237)"
     d="m -17,1.5e-7 h 9.0000003 V 1.0000001 l 7,7.0000001 h 1 V 18 c 0,2 -2,4 -4,4 H -15 c -2,0 -4,-2 -4,-4 V 4.0000001 C -19,2.0000002 -17,1.5e-7 -15,1.5e-7"
     id="path833"
     style="fill:#fd7541;fill-opacity:1" />
  <path
     fill="rgb(106,136,242)"
     d="m -7.9999997,1.5e-7 8,8.00000005 h -6 c -1,0 -2,-1.0000001 -2,-2.0000001 z"
     id="path835"
     style="fill:#feac8d;fill-opacity:1" />
  <g
     style="font-weight:500;font-size:7.62095px;line-height:1.25;font-family:Montserrat;-inkscape-font-specification:'Montserrat Medium';stroke-width:0.201638"
     id="text855"
     aria-label="SVG"
     transform="matrix(0.91633443,0,0,0.91633443,5.2816052,2.2858602)">
    <path
       id="path913"
       style="font-style:normal;font-variant:normal;font-weight:normal;font-stretch:normal;font-family:'Arial Rounded MT Bold';-inkscape-font-specification:'Arial Rounded MT Bold, ';fill:#ffffff;stroke-width:0.201638"
       d="m 1.2349671,14.965302 q 0,0.494915 -0.25676051,0.889359 -0.25303937,0.394443 -0.74423342,0.617714 -0.49119406,0.22327 -1.16472531,0.22327 -0.80749326,0 -1.33217786,-0.305136 -0.3721167,-0.219549 -0.6065502,-0.584223 -0.2307124,-0.368396 -0.2307124,-0.714464 0,-0.200944 0.1376832,-0.342348 0.1414044,-0.145125 0.3572321,-0.145125 0.1748948,0 0.2939722,0.111635 0.1227985,0.111635 0.2083853,0.331184 0.1041927,0.260481 0.2232701,0.435376 0.1227985,0.174895 0.3423473,0.290251 0.2195489,0.111635 0.57678093,0.111635 0.49119405,0 0.79632976,-0.226991 0.30885687,-0.230712 0.30885687,-0.57306 0,-0.271645 -0.16745252,-0.439098 Q -0.18651872,14.474108 -0.45072158,14.3848 -0.71120328,14.295492 -1.150301,14.19502 -1.7382454,14.057337 -2.1364103,13.875 -2.530854,13.688942 -2.7652875,13.372642 q -0.2307124,-0.32002 -0.2307124,-0.792608 0,-0.450261 0.2455971,-0.800051 0.245597,-0.34979 0.7107429,-0.535848 0.4651459,-0.18978 1.09402309,-0.18978 0.50235756,0 0.86703194,0.12652 0.36839554,0.122798 0.6102714,0.331184 0.24187587,0.204664 0.35351088,0.431655 0.11163501,0.226991 0.11163501,0.442819 0,0.197222 -0.14140435,0.357232 -0.13768318,0.156289 -0.34606854,0.156289 -0.18977952,0 -0.29025103,-0.09303 -0.0967503,-0.09675 -0.21210653,-0.312578 -0.14884668,-0.308857 -0.35723204,-0.480031 -0.20838536,-0.174895 -0.66981003,-0.174895 -0.4279343,0 -0.6921371,0.18978 -0.2604817,0.186058 -0.2604817,0.450261 0,0.163732 0.089308,0.282809 0.089308,0.119077 0.245597,0.204664 0.156289,0.08559 0.3162992,0.133962 0.1600102,0.04838 0.52840575,0.141404 0.46142472,0.107914 0.83354143,0.238155 0.37583787,0.130241 0.63631957,0.316299 0.26420286,0.186059 0.40932835,0.472589 0.1488467,0.282808 0.1488467,0.695858 z" />
    <path
       id="path915"
       style="font-style:normal;font-variant:normal;font-weight:normal;font-stretch:normal;font-family:'Arial Rounded MT Bold';-inkscape-font-specification:'Arial Rounded MT Bold, ';fill:#ffffff;stroke-width:0.201638"
       d="M 2.9876368,11.779983 4.2230643,15.43789 5.462213,11.753935 q 0.09675,-0.290251 0.1451255,-0.401886 0.048375,-0.115357 0.1600102,-0.204665 0.111635,-0.09303 0.3051357,-0.09303 0.1414043,0 0.2604817,0.0707 0.1227985,0.0707 0.1897795,0.18978 0.070702,0.115356 0.070702,0.234433 0,0.08187 -0.022327,0.178616 -0.022327,0.09303 -0.055817,0.186059 -0.033491,0.08931 -0.066981,0.186058 l -1.3210144,3.564878 q -0.070702,0.204664 -0.1414043,0.390723 -0.070702,0.182337 -0.1637314,0.323741 -0.093029,0.137684 -0.2493182,0.226992 -0.1525678,0.08931 -0.3758378,0.08931 -0.2232701,0 -0.3795591,-0.08931 Q 3.6648893,16.52075 3.5681389,16.379345 3.4751097,16.23422 3.4044076,16.051883 3.3337054,15.869545 3.2630032,15.664881 L 1.9643159,12.129773 q -0.03349,-0.09675 -0.070702,-0.18978 -0.03349,-0.09303 -0.059539,-0.200943 -0.022327,-0.107914 -0.022327,-0.182337 0,-0.18978 0.1525679,-0.346069 0.1525678,-0.156289 0.3832802,-0.156289 0.2828087,0 0.3981649,0.174895 0.1190773,0.171174 0.2418759,0.550733 z" />
    <path
       id="path917"
       style="font-style:normal;font-variant:normal;font-weight:normal;font-stretch:normal;font-family:'Arial Rounded MT Bold';-inkscape-font-specification:'Arial Rounded MT Bold, ';fill:#ffffff;stroke-width:0.201638"
       d="m 12.3073,14.3848 v 1.045648 q 0,0.208385 -0.04093,0.334905 -0.04093,0.122798 -0.152568,0.22327 -0.107914,0.100471 -0.279087,0.1935 -0.494916,0.267925 -0.952619,0.390723 -0.457704,0.122799 -0.9972728,0.122799 -0.6288773,0 -1.1461195,-0.193501 Q 8.2214585,16.308643 7.8567841,15.940248 7.4921097,15.571852 7.2948879,15.047168 7.1013872,14.522483 7.1013872,13.875 q 0,-0.63632 0.1897795,-1.164725 0.1897795,-0.528406 0.5581751,-0.896802 0.3683955,-0.368395 0.8968012,-0.561896 0.5284058,-0.197222 1.1982158,-0.197222 0.5507332,0 0.9749462,0.148847 0.424213,0.145125 0.688416,0.368395 0.264202,0.22327 0.398164,0.472589 0.133962,0.249318 0.133962,0.442819 0,0.208385 -0.156289,0.357232 -0.152567,0.145125 -0.368395,0.145125 -0.119077,0 -0.230712,-0.05582 -0.107914,-0.05582 -0.182338,-0.156289 -0.204664,-0.320021 -0.346068,-0.483752 -0.141405,-0.163731 -0.38328,-0.275367 -0.238155,-0.111635 -0.6102718,-0.111635 -0.3832803,0 -0.6846948,0.133962 -0.3014145,0.130241 -0.5172422,0.383281 -0.2121065,0.249318 -0.3274627,0.613992 -0.111635,0.364675 -0.111635,0.807494 0,0.960061 0.4390977,1.477303 0.4428189,0.517242 1.2317063,0.517242 0.3832805,0 0.7181855,-0.100471 0.338626,-0.100472 0.684694,-0.28653 v -0.885638 h -0.855868 q -0.308857,0 -0.468867,-0.09303 -0.156289,-0.09303 -0.156289,-0.316299 0,-0.182338 0.1302408,-0.301415 0.1339622,-0.119077 0.3609532,-0.119077 h 1.254033 q 0.230713,0 0.390723,0.04093 0.16001,0.04093 0.25676,0.182337 0.100472,0.141404 0.100472,0.424213 z" />
  </g>
  <g
     transform="matrix(0.91633443,0,0,0.91633443,-13.718394,2.2858604)"
     aria-label="SVG"
     id="g2696"
     style="font-weight:500;font-size:7.62095px;line-height:1.25;font-family:Montserrat;-inkscape-font-specification:'Montserrat Medium';stroke-width:0.201638">
    <path
       d="m 1.2349671,14.965302 q 0,0.494915 -0.25676051,0.889359 -0.25303937,0.394443 -0.74423342,0.617714 -0.49119406,0.22327 -1.16472531,0.22327 -0.80749326,0 -1.33217786,-0.305136 -0.3721167,-0.219549 -0.6065502,-0.584223 -0.2307124,-0.368396 -0.2307124,-0.714464 0,-0.200944 0.1376832,-0.342348 0.1414044,-0.145125 0.3572321,-0.145125 0.1748948,0 0.2939722,0.111635 0.1227985,0.111635 0.2083853,0.331184 0.1041927,0.260481 0.2232701,0.435376 0.1227985,0.174895 0.3423473,0.290251 0.2195489,0.111635 0.57678093,0.111635 0.49119405,0 0.79632976,-0.226991 0.30885687,-0.230712 0.30885687,-0.57306 0,-0.271645 -0.16745252,-0.439098 Q -0.18651872,14.474108 -0.45072158,14.3848 -0.71120328,14.295492 -1.150301,14.19502 -1.7382454,14.057337 -2.1364103,13.875 -2.530854,13.688942 -2.7652875,13.372642 q -0.2307124,-0.32002 -0.2307124,-0.792608 0,-0.450261 0.2455971,-0.800051 0.245597,-0.34979 0.7107429,-0.535848 0.4651459,-0.18978 1.09402309,-0.18978 0.50235756,0 0.86703194,0.12652 0.36839554,0.122798 0.6102714,0.331184 0.24187587,0.204664 0.35351088,0.431655 0.11163501,0.226991 0.11163501,0.442819 0,0.197222 -0.14140435,0.357232 -0.13768318,0.156289 -0.34606854,0.156289 -0.18977952,0 -0.29025103,-0.09303 -0.0967503,-0.09675 -0.21210653,-0.312578 -0.14884668,-0.308857 -0.35723204,-0.480031 -0.20838536,-0.174895 -0.66981003,-0.174895 -0.4279343,0 -0.6921371,0.18978 -0.2604817,0.186058 -0.2604817,0.450261 0,0.163732 0.089308,0.282809 0.089308,0.119077 0.245597,0.204664 0.156289,0.08559 0.3162992,0.133962 0.1600102,0.04838 0.52840575,0.141404 0.46142472,0.107914 0.83354143,0.238155 0.37583787,0.130241 0.63631957,0.316299 0.26420286,0.186059 0.40932835,0.472589 0.1488467,0.282808 0.1488467,0.695858 z"
       style="font-style:normal;font-variant:normal;font-weight:normal;font-stretch:normal;font-family:'Arial Rounded MT Bold';-inkscape-font-specification:'Arial Rounded MT Bold, ';fill:#ffffff;stroke-width:0.201638"
       id="path2690" />
    <path
       d="M 2.9876368,11.779983 4.2230643,15.43789 5.462213,11.753935 q 0.09675,-0.290251 0.1451255,-0.401886 0.048375,-0.115357 0.1600102,-0.204665 0.111635,-0.09303 0.3051357,-0.09303 0.1414043,0 0.2604817,0.0707 0.1227985,0.0707 0.1897795,0.18978 0.070702,0.115356 0.070702,0.234433 0,0.08187 -0.022327,0.178616 -0.022327,0.09303 -0.055817,0.186059 -0.033491,0.08931 -0.066981,0.186058 l -1.3210144,3.564878 q -0.070702,0.204664 -0.1414043,0.390723 -0.070702,0.182337 -0.1637314,0.323741 -0.093029,0.137684 -0.2493182,0.226992 -0.1525678,0.08931 -0.3758378,0.08931 -0.2232701,0 -0.3795591,-0.08931 Q 3.6648893,16.52075 3.5681389,16.379345 3.4751097,16.23422 3.4044076,16.051883 3.3337054,15.869545 3.2630032,15.664881 L 1.9643159,12.129773 q -0.03349,-0.09675 -0.070702,-0.18978 -0.03349,-0.09303 -0.059539,-0.200943 -0.022327,-0.107914 -0.022327,-0.182337 0,-0.18978 0.1525679,-0.346069 0.1525678,-0.156289 0.3832802,-0.156289 0.2828087,0 0.3981649,0.174895 0.1190773,0.171174 0.2418759,0.550733 z"
       style="font-style:normal;font-variant:normal;font-weight:normal;font-stretch:normal;font-family:'Arial Rounded MT Bold';-inkscape-font-specification:'Arial Rounded MT Bold, ';fill:#ffffff;stroke-width:0.201638"
       id="path2692" />
    <path
       d="m 12.3073,14.3848 v 1.045648 q 0,0.208385 -0.04093,0.334905 -0.04093,0.122798 -0.152568,0.22327 -0.107914,0.100471 -0.279087,0.1935 -0.494916,0.267925 -0.952619,0.390723 -0.457704,0.122799 -0.9972728,0.122799 -0.6288773,0 -1.1461195,-0.193501 Q 8.2214585,16.308643 7.8567841,15.940248 7.4921097,15.571852 7.2948879,15.047168 7.1013872,14.522483 7.1013872,13.875 q 0,-0.63632 0.1897795,-1.164725 0.1897795,-0.528406 0.5581751,-0.896802 0.3683955,-0.368395 0.8968012,-0.561896 0.5284058,-0.197222 1.1982158,-0.197222 0.5507332,0 0.9749462,0.148847 0.424213,0.145125 0.688416,0.368395 0.264202,0.22327 0.398164,0.472589 0.133962,0.249318 0.133962,0.442819 0,0.208385 -0.156289,0.357232 -0.152567,0.145125 -0.368395,0.145125 -0.119077,0 -0.230712,-0.05582 -0.107914,-0.05582 -0.182338,-0.156289 -0.204664,-0.320021 -0.346068,-0.483752 -0.141405,-0.163731 -0.38328,-0.275367 -0.238155,-0.111635 -0.6102718,-0.111635 -0.3832803,0 -0.6846948,0.133962 -0.3014145,0.130241 -0.5172422,0.383281 -0.2121065,0.249318 -0.3274627,0.613992 -0.111635,0.364675 -0.111635,0.807494 0,0.960061 0.4390977,1.477303 0.4428189,0.517242 1.2317063,0.517242 0.3832805,0 0.7181855,-0.100471 0.338626,-0.100472 0.684694,-0.28653 v -0.885638 h -0.855868 q -0.308857,0 -0.468867,-0.09303 -0.156289,-0.09303 -0.156289,-0.316299 0,-0.182338 0.1302408,-0.301415 0.1339622,-0.119077 0.3609532,-0.119077 h 1.254033 q 0.230713,0 0.390723,0.04093 0.16001,0.04093 0.25676,0.182337 0.100472,0.141404 0.100472,0.424213 z"
       style="font-style:normal;font-variant:normal;font-weight:normal;font-stretch:normal;font-family:'Arial Rounded MT Bold';-inkscape-font-specification:'Arial Rounded MT Bold, ';fill:#ffffff;stroke-width:0.201638"
       id="path2694" />
  </g>
</svg>
