<svg xmlns="http://www.w3.org/2000/svg" viewBox="0 0 48 48">
    <path fill="#ffa000" d="M 40 12 H 22 l -4 -4 H 8 c -2.2 0 -4 1.8 -4 4 v 24 c 0 2.2 1.8 4 4 4 h 32 c 2.2 0 4 -1.8 4 -4 V 16 C 44 13.8 42.2 12 40 12 z"></path>
    <path fill="#ffca28" d="M 40 12 H 22 L 18 16 L 8 16 c -2.2 0 -4 1.8 -4 4 v 16 c 0 2.2 1.8 4 4 4 h 32 c 2.2 0 4 -1.8 4 -4 V 16 C 44 13.8 42.2 12 40 12 z"></path>
    <path fill="#0776c6" d="M 12 40 V 34 c 0 -2.2 1.8 -4 4 -4 H 32 c 2.2 0 4 1.8 4 4 V 40 z"></path>
    <path fill="#114a8b" d="M 15 35 c 0 -1.1 0.9 -2 2 -2 H 31 c 1.1 0 2 0.9 2 2 c 0 1.1 -0.9 2 -2 2 H 17 c -1.1 0 -2 -0.9 -2 -2"></path>
</svg>