<svg xmlns="http://www.w3.org/2000/svg" viewBox="0 0 40 32">
    <path fill="#ffa000" d="M 36 4 H 18 l -4 -4 H 4 c -2.2 0 -4 1.8 -4 4 v 24 c 0 2.2 1.8 4 4 4 h 32 c 2.2 0 4 -1.8 4 -4 V 8 C 40 5.8 38.2 4 36 4 z"></path>
    <path fill="#ffca28" d="M 36 4 H 18 L 14 8 L 4 8 c -2.2 0 -4 1.8 -4 4 v 16 c 0 2.2 1.8 4 4 4 h 32 c 2.2 0 4 -1.8 4 -4 V 8 C 40 5.8 38.2 4 36 4 z"></path>
    <path fill="#0776c6" d="M 8 32 V 26 c 0 -2.2 1.8 -4 4 -4 H 28 c 2.2 0 4 1.8 4 4 V 32 z"></path>
    <path fill="#114a8b" d="M 11 27 c 0 -1.1 0.9 -2 2 -2 H 27 c 1.1 0 2 0.9 2 2 c 0 1.1 -0.9 2 -2 2 H 13 c -1.1 0 -2 -0.9 -2 -2 z"></path>
</svg>